<?xml version="1.0" encoding="UTF-8"?>
<svg version="1.1" xmlns="http://www.w3.org/2000/svg" width="1193" height="259">
<path d="M0 0 C393.69 0 787.38 0 1193 0 C1193 85.47 1193 170.94 1193 259 C799.31 259 405.62 259 0 259 C0 173.53 0 88.06 0 0 Z " fill="#FDFEFD" transform="translate(0,0)"/>
<path d="M0 0 C0 10.56 0 21.12 0 32 C-4.29 32.99 -8.58 33.98 -13 35 C-15.86928074 36.13032271 -18.43008082 37.20594829 -21.125 38.625 C-22.1315564 39.14441162 -22.1315564 39.14441162 -23.15844727 39.67431641 C-41.33408384 49.39379188 -53.92642502 65.45893266 -60 85 C-61.77673759 91.97825613 -62.35600599 98.68831469 -62.3125 105.875 C-62.30758545 106.84099121 -62.3026709 107.80698242 -62.29760742 108.80224609 C-62.1811411 115.89892759 -61.46376898 122.29854837 -59 129 C-58.63648438 130.0003125 -58.27296875 131.000625 -57.8984375 132.03125 C-50.45456995 151.04913096 -37.33921081 165.8756766 -19 175 C-8.86966488 179.05949265 0.35353242 180.19886623 11.1875 180.25 C12.26064453 180.270625 13.33378906 180.29125 14.43945312 180.3125 C24.85314718 180.362899 33.77829609 178.09438728 43 173.3125 C43.67861084 172.96509766 44.35722168 172.61769531 45.05639648 172.25976562 C54.5019347 167.30077429 62.4128964 161.45307493 69 153 C72.95397371 154.14225907 75.14109734 155.14109734 78 158 C80.03232242 159.19599068 80.03232242 159.19599068 82.1875 160.1875 C82.90292969 160.53167969 83.61835938 160.87585938 84.35546875 161.23046875 C84.89816406 161.48441406 85.44085938 161.73835937 86 162 C86 162.66 86 163.32 86 164 C86.886875 164.28875 87.77375 164.5775 88.6875 164.875 C91.50382424 165.83148748 94.25083156 166.86798946 97 168 C96.67 168.99 96.34 169.98 96 171 C95.34 171 94.68 171 94 171 C93.60494263 171.88292725 93.60494263 171.88292725 93.2019043 172.78369141 C91.94784139 175.09618035 90.63114844 176.61266055 88.76953125 178.4609375 C88.13080078 179.09773437 87.49207031 179.73453125 86.83398438 180.390625 C85.83334961 181.37289062 85.83334961 181.37289062 84.8125 182.375 C84.16474609 183.02210938 83.51699219 183.66921875 82.84960938 184.3359375 C76.3043354 190.82236285 70.23048516 196.30850097 61.875 200.3125 C61.18535156 200.65861328 60.49570313 201.00472656 59.78515625 201.36132812 C56.21163364 203.11392573 52.98830758 204.46460463 49 205 C49 205.66 49 206.32 49 207 C41.67628677 209.24195303 34.47088033 210.62137967 26.87109375 211.5703125 C24.06419081 211.83877861 24.06419081 211.83877861 22 213 C7.89410231 214.10083701 -5.55926941 213.43437073 -19 209 C-20.59134766 208.53207031 -20.59134766 208.53207031 -22.21484375 208.0546875 C-47.39993215 200.3403361 -69.30763427 182.10198727 -82.06542969 159.07714844 C-84.25675486 154.80482148 -86.15971553 150.43341259 -88 146 C-88.39960937 145.05511719 -88.79921875 144.11023438 -89.2109375 143.13671875 C-99.19507237 117.80103815 -97.58015231 87.85280825 -86.92724609 63.03808594 C-82.05084767 52.31976733 -75.97265647 42.6962474 -68 34 C-67.15695313 33.07574219 -66.31390625 32.15148438 -65.4453125 31.19921875 C-48.76166795 13.71766076 -24.56517038 0 0 0 Z " fill="#3840C4" transform="translate(99,20)"/>
<path d="M0 0 C25.87536818 0 49.09488277 14.21518438 67.125 31.75 C87.33015449 52.06500023 96.17192131 78.05256244 96.1875 106.25 C96.19974609 107.40113281 96.21199219 108.55226563 96.22460938 109.73828125 C96.24333698 120.81253999 94.8058496 130.88685106 90.875 141.25 C90.45927734 142.38501953 90.45927734 142.38501953 90.03515625 143.54296875 C89.36614498 145.36544772 88.68449836 147.18328107 88 149 C82.34803641 146.82680347 77.09074486 144.02605784 71.75 141.1875 C70.22246094 140.40536133 70.22246094 140.40536133 68.6640625 139.60742188 C67.21386719 138.83301758 67.21386719 138.83301758 65.734375 138.04296875 C64.84975586 137.57914795 63.96513672 137.11532715 63.05371094 136.63745117 C61 135 61 135 60.16918945 132.45166016 C59.97362347 129.61778768 60.51132481 127.86723354 61.4375 125.1875 C65.03467189 111.84315265 64.79612383 94.96193811 60 82 C59.7215625 81.16082031 59.443125 80.32164063 59.15625 79.45703125 C52.58785752 61.19576766 38.2751698 46.45297335 20.8828125 38.24609375 C14.02592468 35.28220864 7.34978936 33.63328652 0 32 C0 21.44 0 10.88 0 0 Z " fill="#52B4E3" transform="translate(120,20)"/>
<path d="M0 0 C10.7971875 -0.12375 10.7971875 -0.12375 21.8125 -0.25 C24.06167236 -0.28641602 26.31084473 -0.32283203 28.62817383 -0.36035156 C50.54065578 -0.56802271 50.54065578 -0.56802271 59.0625 6.5625 C63.87417281 12.61589483 63.5956316 17.4522308 63 25 C61.37031634 29.80327816 58.71140634 32.5895185 55 36 C55.53109375 36.29132813 56.0621875 36.58265625 56.609375 36.8828125 C57.31578125 37.29273438 58.0221875 37.70265625 58.75 38.125 C59.44609375 38.51945312 60.1421875 38.91390625 60.859375 39.3203125 C64.81155209 42.42147335 66.73982044 45.6249813 67.671875 50.55078125 C67.80443035 56.9333214 67.87646099 62.01518601 63.8125 67.1875 C52.21851269 77.32335176 36.56835065 75.47937099 22.1875 75.25 C14.865625 75.1675 7.54375 75.085 0 75 C0 50.25 0 25.5 0 0 Z " fill="#070707" transform="translate(765,81)"/>
<path d="M0 0 C10.085625 -0.12375 10.085625 -0.12375 20.375 -0.25 C22.47665527 -0.28641602 24.57831055 -0.32283203 26.74365234 -0.36035156 C28.4410704 -0.37205244 30.13849982 -0.38224094 31.8359375 -0.390625 C32.6916333 -0.41108887 33.5473291 -0.43155273 34.42895508 -0.45263672 C42.50678872 -0.45722249 50.36854921 1.81505798 56.4375 7.375 C57.36369141 8.19097656 57.36369141 8.19097656 58.30859375 9.0234375 C62.82665664 14.30320614 63.55410982 19.19105013 63.5 25.875 C63.49500488 26.67639404 63.49000977 27.47778809 63.48486328 28.3034668 C63.27192765 35.48527162 61.57364997 39.55741299 56.40234375 44.5390625 C54.39380885 46.30578362 52.39618992 47.80190504 50 49 C51.62352688 53.94789144 54.50654386 57.8076144 57.5 62 C63.48453608 70.3814433 63.48453608 70.3814433 65 75 C59.27387687 76.31021462 53.56778591 77.35421147 48 75 C41.93820939 69.35654493 37.51109457 61.4510509 34 54 C34 53.34 34 52.68 34 52 C28.06 52 22.12 52 16 52 C16 59.59 16 67.18 16 75 C10.72 75 5.44 75 0 75 C0 50.25 0 25.5 0 0 Z " fill="#080808" transform="translate(268,81)"/>
<path d="M0 0 C4.95 0 9.9 0 15 0 C15 26.4 15 52.8 15 80 C10.05 80 5.1 80 0 80 C0 78.02 0 76.04 0 74 C-0.52464844 74.433125 -1.04929687 74.86625 -1.58984375 75.3125 C-9.04267488 80.6696099 -16.14195709 81.32198593 -25.04541016 80.34570312 C-31.66904768 79.17419791 -36.30266489 75.20321983 -40.4375 70.125 C-46.37704786 61.1399616 -47.09935757 52.50148236 -46 42 C-43.72604918 34.20792851 -38.73783927 28.07640045 -31.97265625 23.68359375 C-25.22720216 20.18278846 -17.96019838 19.87891451 -10.59765625 21.54296875 C-6.22334975 23.01736256 -4.36019675 24.63980325 -1 28 C-0.67 18.76 -0.34 9.52 0 0 Z " fill="#060606" transform="translate(1032,76)"/>
<path d="M0 0 C2.92005296 1.59667921 5.18604415 3.23463596 7.4375 5.6875 C10.98788751 3.97981921 14.23148379 1.94551816 17.53515625 -0.19140625 C23.13252843 -3.49006296 30.06192269 -3.14568199 36.20703125 -1.62890625 C43.20492529 0.89956821 46.12995893 4.0042489 50.0480957 10.25830078 C51.90476406 14.84075795 51.81377142 18.78604147 51.73046875 23.6796875 C51.72622391 24.62562775 51.72197906 25.57156799 51.71760559 26.5461731 C51.70088306 29.55191133 51.66324263 32.5569662 51.625 35.5625 C51.60994486 37.60676111 51.59625791 39.65103279 51.58398438 41.6953125 C51.55100055 46.69296954 51.49926253 51.69011911 51.4375 56.6875 C46.4875 56.6875 41.5375 56.6875 36.4375 56.6875 C36.42291748 55.56255127 36.40833496 54.43760254 36.39331055 53.27856445 C36.33522246 49.09432613 36.25799036 44.91062003 36.17504883 40.72680664 C36.14184886 38.91797542 36.11380159 37.10904182 36.09106445 35.30004883 C36.05742742 32.69568367 36.00510805 30.0922524 35.94921875 27.48828125 C35.94282883 26.68288406 35.9364389 25.87748688 35.92985535 25.04768372 C35.81053162 20.46375224 35.38955094 17.41643004 32.4375 13.6875 C28.5118073 11.39751259 24.91339017 11.21635367 20.4375 11.6875 C16.44511019 13.79668707 13.96804423 15.42427663 12.4375 19.6875 C12.2009644 22.5440386 12.06531481 25.31260746 12.0234375 28.171875 C12.00407135 28.98746887 11.9847052 29.80306274 11.9647522 30.64337158 C11.90510425 33.24130892 11.85863058 35.83929093 11.8125 38.4375 C11.77430658 40.20184194 11.73525405 41.96616551 11.6953125 43.73046875 C11.59941495 48.04932946 11.51532953 52.36827744 11.4375 56.6875 C6.4875 56.6875 1.5375 56.6875 -3.5625 56.6875 C-3.592229 55.0000769 -3.592229 55.0000769 -3.62255859 53.27856445 C-3.69878155 49.09442219 -3.78747306 44.91062013 -3.87988281 40.72680664 C-3.91810367 38.91795582 -3.9529685 37.10903079 -3.984375 35.30004883 C-4.03017557 32.69585698 -4.08814474 30.092173 -4.1484375 27.48828125 C-4.15998871 26.68288406 -4.17153992 25.87748688 -4.18344116 25.04768372 C-4.29207909 20.89012162 -4.47467893 17.40210769 -6.5625 13.6875 C-10.86480054 11.58637648 -14.8260641 11.18002472 -19.5625 11.6875 C-24.14839307 13.89225628 -26.06963815 16.02849687 -27.95791626 20.72512817 C-28.9587554 23.97367491 -29.04283424 27.22195642 -29.07421875 30.58984375 C-29.09216995 31.3124086 -29.11012115 32.03497345 -29.12861633 32.7794342 C-29.18230006 35.06123211 -29.21647763 37.34282606 -29.25 39.625 C-29.28321036 41.18297085 -29.31770341 42.74091491 -29.35351562 44.29882812 C-29.44039088 48.09507455 -29.50081089 51.89042885 -29.5625 55.6875 C-34.1825 55.6875 -38.8025 55.6875 -43.5625 55.6875 C-43.5625 36.8775 -43.5625 18.0675 -43.5625 -1.3125 C-38.9425 -1.3125 -34.3225 -1.3125 -29.5625 -1.3125 C-29.2325 0.6675 -28.9025 2.6475 -28.5625 4.6875 C-27.675625 3.90375 -26.78875 3.12 -25.875 2.3125 C-18.5983055 -4.11806723 -8.45936928 -4.11805073 0 0 Z " fill="#060606" transform="translate(592.5625,99.3125)"/>
<path d="M0 0 C5.22589946 3.97303803 7.64575163 8.64908768 9.93359375 14.75 C9.93359375 19.37 9.93359375 23.99 9.93359375 28.75 C-4.58640625 28.75 -19.10640625 28.75 -34.06640625 28.75 C-31.07468055 34.7334514 -29.0431021 37.76165208 -23.06640625 40.75 C-15.15749541 41.49222086 -9.89922947 40.72546078 -3.06640625 36.75 C-0.06640625 36.75 -0.06640625 36.75 1.7578125 38.28125 C2.37269531 38.9309375 2.98757813 39.580625 3.62109375 40.25 C4.24371094 40.8996875 4.86632813 41.549375 5.5078125 42.21875 C5.97832031 42.7240625 6.44882813 43.229375 6.93359375 43.75 C5.47484665 47.61526773 3.68505229 48.72031959 -0.00390625 50.4375 C-0.87917969 50.85386719 -1.75445313 51.27023438 -2.65625 51.69921875 C-10.76099575 55.23273027 -21.92047651 55.27246442 -30.3671875 52.7734375 C-32.76651642 51.58651606 -34.89474799 50.30960426 -37.06640625 48.75 C-38.45859375 47.88375 -38.45859375 47.88375 -39.87890625 47 C-46.01445926 40.68914548 -49.1179338 32.56320786 -49.37890625 23.875 C-49.13955171 14.15720572 -46.15273165 9.03136863 -39.48046875 1.95703125 C-28.43029164 -8.14547695 -12.32601008 -7.45618757 0 0 Z " fill="#070707" transform="translate(1111.06640625,102.25)"/>
<path d="M0 0 C6.52073085 5.21658468 9.87758315 10.08035108 11.8125 18.25 C11.8125 21.88 11.8125 25.51 11.8125 29.25 C-2.7075 29.25 -17.2275 29.25 -32.1875 29.25 C-29.25176802 35.12146395 -27.23230431 38.73759465 -21.1875 41.25 C-14.71367357 42.11451719 -9.5135257 41.59102678 -3.94140625 38.125 C-2.1875 37.25 -2.1875 37.25 1.8125 37.25 C3.515625 38.78125 3.515625 38.78125 5.0625 40.75 C5.84367187 41.72453125 5.84367187 41.72453125 6.640625 42.71875 C7.02734375 43.2240625 7.4140625 43.729375 7.8125 44.25 C5.9500431 48.4295981 3.82735251 49.97744197 -0.1875 52.25 C-10.2018366 55.68701923 -22.22535257 56.24576694 -31.9375 51.6875 C-39.30391665 47.3225929 -43.57831038 42.11070072 -46.4921875 34.0546875 C-48.74535917 24.9660512 -47.69438703 16.41594382 -43.1875 8.25 C-39.20960561 2.16616153 -32.79764362 -2.53947487 -25.703125 -4.40234375 C-16.21354426 -5.71379202 -8.39152598 -4.6071123 0 0 Z " fill="#070607" transform="translate(390.1875,101.75)"/>
<path d="M0 0 C7.84567308 4.52738327 12.12458263 9.8328627 15.28125 18.31640625 C15.28125 22.60640625 15.28125 26.89640625 15.28125 31.31640625 C0.76125 31.31640625 -13.75875 31.31640625 -28.71875 31.31640625 C-24.46466253 38.80530333 -24.46466253 38.80530333 -17.71875 43.31640625 C-8.84396415 44.20770469 -3.11043828 43.32772034 4.28125 38.31640625 C6.59125 40.95640625 8.90125 43.59640625 11.28125 46.31640625 C8.74840831 51.38208963 5.83556575 53.25590909 0.65625 55.40625 C-7.99920011 57.74041652 -19.45124258 58.0638608 -27.59375 54.06640625 C-28.99578692 53.19165185 -30.37648519 52.28037096 -31.71875 51.31640625 C-33.1109375 50.45015625 -33.1109375 50.45015625 -34.53125 49.56640625 C-40.27095734 43.66270727 -43.72876592 35.69618332 -44.03125 27.50390625 C-43.80897367 18.78282925 -40.82714475 11.58311793 -34.71875 5.31640625 C-24.27843264 -2.98797317 -12.56544383 -5.85435451 0 0 Z " fill="#070707" transform="translate(701.71875,99.68359375)"/>
<path d="M0 0 C4.95 0 9.9 0 15 0 C15.00410889 1.11971191 15.00821777 2.23942383 15.01245117 3.39306641 C15.03429358 7.56442719 15.08863545 11.73485154 15.15258789 15.90576172 C15.17572354 17.70775346 15.19015319 19.50987957 15.19555664 21.31201172 C15.20487904 23.90937603 15.24593792 26.50464001 15.29296875 29.1015625 C15.2890361 29.9017984 15.28510345 30.7020343 15.28105164 31.52651978 C15.38676493 35.61841825 15.78857693 38.25361516 18.37426758 41.51293945 C20.75527295 44.17295943 20.75527295 44.17295943 23.71875 44.69140625 C30.97977838 44.56660299 30.97977838 44.56660299 37 41 C42.2342057 33.30090569 41.66811231 24.96003703 41.75 16 C41.77819683 14.44658181 41.80812938 12.89319411 41.83984375 11.33984375 C41.91649753 7.55960213 41.95741681 3.78138744 42 0 C46.95 0 51.9 0 57 0 C57 19.14 57 38.28 57 58 C52.05 58 47.1 58 42 58 C42 56.35 42 54.7 42 53 C41.47535156 53.3609375 40.95070313 53.721875 40.41015625 54.09375 C32.2373351 58.98928347 24.23743985 59.1421167 15 58 C9.71771695 56.14855601 5.96977161 52.72963627 3 48 C0.29677301 41.91576414 -0.41581664 37.08296056 -0.29296875 30.46875 C-0.28872391 29.59222778 -0.28447906 28.71570557 -0.28010559 27.81262207 C-0.2634513 25.04142177 -0.22582509 22.27097664 -0.1875 19.5 C-0.17243599 17.60938558 -0.1587506 15.71875964 -0.14648438 13.828125 C-0.11359139 9.21846361 -0.06190255 4.60935938 0 0 Z " fill="#070707" transform="translate(473,98)"/>
<path d="M0 0 C4.95 0 9.9 0 15 0 C15.01458252 1.05912598 15.02916504 2.11825195 15.04418945 3.20947266 C15.10237327 7.15707342 15.17960407 11.10411571 15.26245117 15.05126953 C15.29560636 16.75625512 15.32366737 18.46134798 15.34643555 20.16650391 C15.38015568 22.62448634 15.43247794 25.08149406 15.48828125 27.5390625 C15.49467117 28.29555084 15.5010611 29.05203918 15.50764465 29.83145142 C15.63788973 34.57096741 16.38504101 37.89920751 19 42 C23.25821391 44.83880927 27.00338745 44.51165313 32 44 C36.25967012 42.2780057 37.96666787 40.06666426 40 36 C41.18001549 32.45995354 41.22912346 29.1772744 41.31640625 25.48828125 C41.33718735 24.76005661 41.35796844 24.03183197 41.37937927 23.28153992 C41.44468746 20.95862125 41.50367237 18.63559094 41.5625 16.3125 C41.60570305 14.73631665 41.64931792 13.16014452 41.69335938 11.58398438 C41.80112368 7.72276896 41.90033556 3.861467 42 0 C46.95 0 51.9 0 57 0 C57 19.14 57 38.28 57 58 C52.05 58 47.1 58 42 58 C41.505 55.03 41.505 55.03 41 52 C40.52949219 52.34933594 40.05898438 52.69867188 39.57421875 53.05859375 C38.95160156 53.51363281 38.32898438 53.96867187 37.6875 54.4375 C37.07261719 54.88996094 36.45773437 55.34242188 35.82421875 55.80859375 C30.03678564 59.58839481 21.62921256 58.58013758 15 58 C9.74930317 56.16339922 5.94814773 52.69519824 3 48 C0.29677301 41.91576414 -0.41581664 37.08296056 -0.29296875 30.46875 C-0.28872391 29.59222778 -0.28447906 28.71570557 -0.28010559 27.81262207 C-0.2634513 25.04142177 -0.22582509 22.27097664 -0.1875 19.5 C-0.17243599 17.60938558 -0.1587506 15.71875964 -0.14648438 13.828125 C-0.11359139 9.21846361 -0.06190255 4.60935938 0 0 Z " fill="#080808" transform="translate(847,98)"/>
<path d="M0 0 C-0.59924224 4.19469571 -1.57499941 8.00999834 -3 12 C-3.72703125 11.7834375 -4.4540625 11.566875 -5.203125 11.34375 C-12.38277037 9.35554051 -19.54041382 7.85409971 -27 9 C-29.30605689 10.41494969 -29.30605689 10.41494969 -31 12 C-30.89386164 14.45224694 -30.89386164 14.45224694 -30 17 C-25.02269996 19.61552237 -19.15912284 20.29073154 -13.68164062 21.32421875 C-7.32391231 22.63300634 -2.91208113 24.73569339 1.375 29.8125 C3.34688161 33.68042161 3.59276702 35.70243911 3 40 C1.1605132 45.24302922 -1.18146668 49.04317273 -6 52 C-11.92132112 54.59740905 -16.74568661 55.51922548 -23.1875 55.4375 C-24.42282471 55.42831543 -24.42282471 55.42831543 -25.68310547 55.41894531 C-32.67496437 55.24200514 -39.78721582 54.45866336 -46 51 C-47.18428661 48.60144484 -47.11363602 47.43547229 -46.44140625 44.859375 C-46.15136719 44.16328125 -45.86132812 43.4671875 -45.5625 42.75 C-45.27503906 42.04359375 -44.98757813 41.3371875 -44.69140625 40.609375 C-44.46324219 40.07828125 -44.23507812 39.5471875 -44 39 C-40.66445129 39.60699915 -37.57514831 40.45475636 -34.375 41.5625 C-27.06881021 43.79039644 -20.03815225 44.17159105 -13 41 C-12.74969023 38.58380177 -12.74969023 38.58380177 -13 36 C-15.81272265 34.12485157 -16.98745476 33.65177376 -20.16796875 33.10546875 C-21.38516602 32.87827148 -21.38516602 32.87827148 -22.62695312 32.64648438 C-24.31304473 32.34424827 -26.0005484 32.04977049 -27.68945312 31.76367188 C-34.54836358 30.46107343 -40.15531501 28.02247781 -45 22.875 C-47.02196979 17.06183685 -47.02571504 11.21554448 -44.4375 5.625 C-33.13138469 -6.55081648 -14.60761091 -7.30380546 0 0 Z " fill="#080808" transform="translate(458,101)"/>
<path d="M0 0 C0 4.62 0 9.24 0 14 C-2.289375 14.12375 -2.289375 14.12375 -4.625 14.25 C-9.4005573 14.73633681 -12.31614184 15.76539284 -16 19 C-19.2093116 23.20160438 -19.46751738 27.02723826 -19.51171875 32.14453125 C-19.52966995 32.91431808 -19.54762115 33.68410492 -19.56611633 34.47721863 C-19.62005387 36.92225764 -19.65406073 39.36710332 -19.6875 41.8125 C-19.72068782 43.47593826 -19.75517884 45.13935107 -19.79101562 46.80273438 C-19.87821191 50.86851482 -19.93841746 54.93342903 -20 59 C-24.95 59 -29.9 59 -35 59 C-35 39.86 -35 20.72 -35 1 C-30.38 1 -25.76 1 -21 1 C-20.67 3.31 -20.34 5.62 -20 8 C-19.55269531 7.59007813 -19.10539062 7.18015625 -18.64453125 6.7578125 C-12.39561165 1.18841295 -8.33818114 -0.28265021 0 0 Z " fill="#060606" transform="translate(1171,97)"/>
<path d="M0 0 C4.62 0 9.24 0 14 0 C14 26.07 14 52.14 14 79 C9.38 79 4.76 79 0 79 C0 52.93 0 26.86 0 0 Z " fill="#010101" transform="translate(957,76)"/>
<path d="M0 0 C4.62830285 4.40253198 6.7705279 8.03920535 7.0625 14.375 C6.7773786 20.83447451 4.66334705 25.48671346 -0.0625 29.875 C-4.54170355 32.82184444 -8.14168904 33.08049897 -13.4375 32.4375 C-18.7410228 29.73570537 -22.53582298 26.14253105 -24.4375 20.4375 C-25.01565902 14.78806044 -25.57148255 9.23748385 -22.25 4.375 C-16.2449536 -2.4451358 -8.33591873 -3.78905397 0 0 Z " fill="#F8F8F7" transform="translate(1025.4375,111.5625)"/>
<path d="M0 0 C4.62 0 9.24 0 14 0 C14 18.81 14 37.62 14 57 C9.38 57 4.76 57 0 57 C0 38.19 0 19.38 0 0 Z " fill="#020202" transform="translate(923,98)"/>
<path d="M0 0 C5.7234375 -0.185625 5.7234375 -0.185625 11.5625 -0.375 C13.34636108 -0.45693604 13.34636108 -0.45693604 15.16625977 -0.54052734 C20.43214457 -0.62297996 24.0727107 -0.58421462 28.21484375 2.8984375 C31.21520221 5.92407859 32.16306702 7.99028415 32.25 12.25 C32.17379682 16.56587109 31.58269426 19.41755312 29 23 C22.94544981 27.48394779 17.92539224 27.49716133 10.5625 27.25 C7.076875 27.1675 3.59125 27.085 0 27 C0 18.09 0 9.18 0 0 Z " fill="#FAFAFA" transform="translate(284,94)"/>
<path d="M0 0 C4.03890609 -0.06906299 8.07629805 -0.1287351 12.11547852 -0.16479492 C13.48794517 -0.17983432 14.86036414 -0.20027133 16.23266602 -0.22631836 C18.21088656 -0.26291221 20.18946514 -0.27816698 22.16796875 -0.29296875 C23.35672607 -0.3086792 24.5454834 -0.32438965 25.77026367 -0.34057617 C29.34380869 0.03625468 31.15676068 0.84080559 34 3 C36.4915904 6.7373856 36.45793285 8.57331583 36 13 C33.57323946 17.0446009 31.43009142 18.59226337 27 20 C23.95385742 20.22705078 23.95385742 20.22705078 20.60546875 20.1953125 C19.40341797 20.18886719 18.20136719 20.18242187 16.96289062 20.17578125 C15.71701172 20.15902344 14.47113281 20.14226562 13.1875 20.125 C11.28967773 20.11146484 11.28967773 20.11146484 9.35351562 20.09765625 C6.23559595 20.07412478 3.11777378 20.03825489 0 20 C0 13.4 0 6.8 0 0 Z " fill="#FBFCFB" transform="translate(781,124)"/>
<path d="M0 0 C3.66747276 -0.1085765 7.33168806 -0.18759858 11 -0.25 C12.02996094 -0.28351563 13.05992187 -0.31703125 14.12109375 -0.3515625 C20.51974044 -0.43307392 25.77173858 0.02182929 31 4 C33.34168764 7.51253146 33.49623677 8.86469356 33 13 C30.90741149 16.17496188 29.17308714 17.88460857 26 20 C23.27270508 20.22705078 23.27270508 20.22705078 20.01953125 20.1953125 C18.27446289 20.18564453 18.27446289 20.18564453 16.49414062 20.17578125 C15.27919922 20.15902344 14.06425781 20.14226562 12.8125 20.125 C11.58595703 20.11597656 10.35941406 20.10695313 9.09570312 20.09765625 C6.06371915 20.07406104 3.03183527 20.03818967 0 20 C0 13.4 0 6.8 0 0 Z " fill="#F3F3F3" transform="translate(780,92)"/>
<path d="M0 0 C4.38281882 2.19140941 7.32823099 4.88958614 10 9 C10 10.32 10 11.64 10 13 C0.1 13 -9.8 13 -20 13 C-18.92297709 7.61488546 -17.70874828 5.8812482 -14 2 C-9.56164363 -0.74489545 -5.06784668 -0.64951833 0 0 Z " fill="#F4F4F2" transform="translate(1097,109)"/>
<path d="M0 0 C4.38281882 2.19140941 7.32823099 4.88958614 10 9 C10 10.32 10 11.64 10 13 C0.76 13 -8.48 13 -18 13 C-19 8 -19 8 -17.375 5.375 C-12.02620351 0.02620351 -7.44140315 -1.07500206 0 0 Z " fill="#F4F4F3" transform="translate(693,109)"/>
<path d="M0 0 C2.98106042 1.66915957 5.1579531 3.09530952 6.6875 6.25 C6.6875 7.9 6.6875 9.55 6.6875 11.25 C-2.8825 11.25 -12.4525 11.25 -22.3125 11.25 C-21.1655583 5.5152915 -19.17196827 2.41925179 -14.5 -1.125 C-9.22489006 -2.63217427 -4.89720518 -2.29077369 0 0 Z " fill="#F5F5F3" transform="translate(380.3125,110.75)"/>
<path d="M0 0 C3.84219511 2.0437208 4.77408944 3.26911288 6.0625 7.4375 C5.98713481 11.73331579 5.03450339 13.05219671 2 16 C-1.21943632 17.60971816 -4.50914646 17.45387771 -8 17 C-11 15.5625 -11 15.5625 -13 13 C-13.70493705 9.85089594 -13.70493705 7.14910406 -13 4 C-9.52262412 -0.45538785 -5.32034439 -1.04257254 0 0 Z " fill="#080808" transform="translate(934,72)"/>
<path d="M0 0 C0.99 0.33 1.98 0.66 3 1 C1.84569854 2.15430146 0.68966648 3.30690093 -0.47265625 4.453125 C-1.48620595 5.4796357 -2.47406721 6.53219534 -3.43359375 7.609375 C-10.18868628 14.95406413 -19.11007282 19.66866706 -28 24 C-28.33 23.34 -28.66 22.68 -29 22 C-28.18917969 21.59910156 -27.37835938 21.19820312 -26.54296875 20.78515625 C-16.29845537 15.5257495 -6.96735141 9.36988637 0 0 Z " fill="#5998E0" transform="translate(168,173)"/>
<path d="M0 0 C0.99 0.33 1.98 0.66 3 1 C2.01 1.99 1.02 2.98 0 4 C1.32 4.33 2.64 4.66 4 5 C3.01 5 2.02 5 1 5 C1 5.99 1 6.98 1 8 C1.99 8.33 2.98 8.66 4 9 C3.67 9.99 3.34 10.98 3 12 C3 13.32 3 14.64 3 16 C2.01 15.67 1.02 15.34 0 15 C-1.36492912 10.68969753 -2.53554276 6.55211348 -2 2 C-1.34 1.34 -0.68 0.68 0 0 Z " fill="#2B1CB5" transform="translate(8,142)"/>
<path d="M0 0 C-0.33 1.98 -0.66 3.96 -1 6 C-1.33 5.34 -1.66 4.68 -2 4 C-2.99 4 -3.98 4 -5 4 C-5.33 2.68 -5.66 1.36 -6 0 C-3 -1 -3 -1 0 0 Z " fill="#3127C3" transform="translate(27,183)"/>
<path d="M0 0 C0.99 0.33 1.98 0.66 3 1 C3 4 3 4 2 7 C1.01 6.67 0.02 6.34 -1 6 C-1.33 4.35 -1.66 2.7 -2 1 C-1.34 0.67 -0.68 0.34 0 0 Z " fill="#3325B6" transform="translate(9,151)"/>
<path d="M0 0 C0.66 0 1.32 0 2 0 C1.835 0.763125 1.67 1.52625 1.5 2.3125 C0.90854604 5.03596236 0.90854604 5.03596236 1 8 C0.01 8.495 0.01 8.495 -1 9 C-1.09765625 2.84765625 -1.09765625 2.84765625 -1 1 C-0.67 0.67 -0.34 0.34 0 0 Z " fill="#3321B9" transform="translate(7,100)"/>
</svg>
